<svg width="16" height="16" viewBox="0 0 16 16" fill="none" xmlns="http://www.w3.org/2000/svg">
<path fill-rule="evenodd" clip-rule="evenodd" d="M4.12891 14.0039C4.24219 14.1406 4.40039 14.209 4.60352 14.209C4.74805 14.209 4.88086 14.1699 5.00195 14.0918C5.12305 14.0137 5.27148 13.8965 5.44727 13.7402L7.46875 11.9414H12.3164C12.8984 11.9414 13.3887 11.8379 13.7871 11.6309C14.1855 11.4199 14.4863 11.1152 14.6895 10.7168C14.8965 10.3184 15 9.83203 15 9.25781V4.76953C15 4.19531 14.8965 3.70898 14.6895 3.31055C14.4863 2.91211 14.1855 2.60938 13.7871 2.40234C13.3887 2.19141 12.8984 2.08594 12.3164 2.08594H3.68359C3.10156 2.08594 2.61133 2.19141 2.21289 2.40234C1.81445 2.60938 1.51172 2.91211 1.30469 3.31055C1.10156 3.70898 1 4.19531 1 4.76953V9.25781C1 9.83203 1.10156 10.3184 1.30469 10.7168C1.51172 11.1152 1.81445 11.4199 2.21289 11.6309C2.61133 11.8379 3.10156 11.9414 3.68359 11.9414H3.96484V13.4648C3.96484 13.6914 4.01953 13.8711 4.12891 14.0039ZM6.71875 11.2734L4.84375 13.1367V11.4375C4.84375 11.2773 4.81055 11.1641 4.74414 11.0977C4.67773 11.0312 4.56445 10.998 4.4043 10.998H3.68359C3.08984 10.998 2.65039 10.8516 2.36523 10.5586C2.08398 10.2617 1.94336 9.82617 1.94336 9.25195V4.76953C1.94336 4.19922 2.08398 3.76758 2.36523 3.47461C2.65039 3.17773 3.08984 3.0293 3.68359 3.0293H12.3164C12.9062 3.0293 13.3438 3.17773 13.6289 3.47461C13.9141 3.76758 14.0566 4.19922 14.0566 4.76953V9.25195C14.0566 9.82617 13.9141 10.2617 13.6289 10.5586C13.3438 10.8516 12.9062 10.998 12.3164 10.998H7.43359C7.26953 10.998 7.13672 11.0156 7.03516 11.0508C6.93359 11.0859 6.82812 11.1602 6.71875 11.2734ZM12 5H4V6H12V5ZM9 8H4V9H9V8Z" fill="#777777"/>
</svg>
