<svg width="175" height="175" viewBox="0 0 175 175" fill="none" xmlns="http://www.w3.org/2000/svg">
<rect width="175" height="175" fill="white"/>
<path d="M47.9335 136.675C47.9335 136.675 38.5771 139.256 44.696 144.721C52.893 152.037 103.247 150.302 103.247 150.302C103.247 150.302 127.075 150.915 128.845 142.335C128.845 142.335 126.651 135.213 121.647 136.175C116.643 137.138 108.212 139.64 108.212 139.64C108.212 139.64 114.715 145.39 100.667 143.258C91.3501 141.844 61.5546 139.871 61.5546 139.871C61.5546 139.871 50.6276 137.9 47.9335 136.675Z" fill="#50C85A"/>
<path d="M94.6661 58.2207C94.9715 61.0714 95.2786 61.7277 95.4746 63.2633C95.5317 63.5605 95.4932 63.8681 95.3645 64.1421C95.2359 64.416 95.0237 64.6421 94.7586 64.7879C94.4934 64.9337 94.1888 64.9917 93.8886 64.9536C93.5884 64.9155 93.308 64.7832 93.0876 64.5758C92.8181 64.3063 92.3561 64.6528 92.5871 64.9608C93.3956 66.2313 95.2865 66.6574 96.1291 65.1533C96.4488 64.4386 96.5166 63.6366 96.3216 62.8783C96.0679 61.2981 95.6872 59.6881 95.2821 58.1437C95.1999 57.8374 94.6285 57.8742 94.6661 58.2207Z" fill="#111111"/>
<path d="M95.8593 59.6069C96.9662 60.6945 99.2464 60.5309 99.7854 58.9139C99.9009 58.5639 99.4783 58.4142 99.2464 58.6059C98.8939 58.9823 98.459 59.2722 97.9759 59.4529C97.3728 59.5837 96.7427 59.4877 96.2058 59.1834C95.9363 59.0294 95.6266 59.3776 95.8593 59.6069Z" fill="#111111"/>
<path d="M87.5055 60.2228C88.5336 61.5099 90.743 61.9553 91.9321 60.6078C92.1246 60.4153 91.9321 59.9533 91.6241 60.1073C91.0481 60.4317 90.388 60.5758 89.7292 60.5209C89.0704 60.4659 88.4433 60.2146 87.929 59.7993C87.6638 59.6006 87.3182 59.9874 87.5055 60.2228Z" fill="#111111"/>
<path d="M96.0518 56.4499C96.9469 55.5355 98.2078 55.7971 99.2849 55.2958C99.4044 55.2238 99.5005 55.119 99.5619 54.9938C99.6233 54.8686 99.6473 54.7283 99.6311 54.5899C99.6148 54.4514 99.559 54.3205 99.4703 54.2129C99.3816 54.1053 99.2638 54.0256 99.1309 53.9833C98.3101 53.8422 97.4658 53.9495 96.7063 54.2913C96.0045 54.537 95.4161 55.0296 95.0508 55.6773C94.9694 55.811 94.9401 55.9701 94.9687 56.124C94.9972 56.2779 95.0815 56.416 95.2055 56.5116C95.3294 56.6073 95.4843 56.6539 95.6404 56.6425C95.7966 56.6311 95.943 56.5625 96.0518 56.4499Z" fill="#111111"/>
<path d="M91.9705 56.296C91.1676 55.9375 90.273 55.8376 89.4108 56.0101C88.5486 56.1825 87.7613 56.6188 87.158 57.2585C86.808 57.682 87.1151 58.5955 87.7705 58.3365C88.3688 58.0609 88.9865 57.8293 89.6185 57.6435C90.294 57.5486 90.9762 57.51 91.6581 57.528C91.7994 57.5197 91.9344 57.4665 92.0436 57.3763C92.1527 57.2861 92.2302 57.1635 92.265 57.0263C92.2998 56.8891 92.29 56.7443 92.2371 56.613C92.1841 56.4817 92.0908 56.3707 91.9705 56.296Z" fill="#111111"/>
<path d="M89.2382 67.691C89.6239 68.1387 90.1294 68.4671 90.6953 68.6375C91.2611 68.808 91.8639 68.8136 92.4328 68.6535C92.7032 68.5388 92.6253 68.0768 92.3558 67.9998C91.8938 67.9228 91.4335 67.957 90.9707 67.8458C90.4923 67.6938 90.0384 67.4733 89.6232 67.1913C89.2784 66.9945 89.0142 67.4153 89.2382 67.691Z" fill="#111111"/>
<path d="M84.927 5.98423C84.1244 9.69137 84.3234 13.5454 85.5037 17.1501C85.5153 17.1942 85.5356 17.2356 85.5635 17.2717C85.5914 17.3078 85.6262 17.338 85.666 17.3604C85.7057 17.3828 85.7496 17.3971 85.7949 17.4022C85.8403 17.4074 85.8862 17.4035 85.9299 17.3906C85.9737 17.3777 86.0145 17.3562 86.0498 17.3273C86.0851 17.2984 86.1143 17.2627 86.1355 17.2223C86.1568 17.1819 86.1698 17.1377 86.1737 17.0923C86.1776 17.0468 86.1723 17.001 86.1582 16.9576C85.5028 13.2555 84.9655 9.91298 85.5037 6.14086C85.5807 5.79173 84.9997 5.60011 84.927 5.98423Z" fill="#111111"/>
<path d="M82.1164 4.59823C80.8787 8.80612 81.0945 13.3082 82.7289 17.3785C82.9231 17.8781 83.6914 17.6462 83.4989 17.1475C81.8789 13.2158 81.5949 8.861 82.6904 4.75223C82.7061 4.71297 82.7133 4.67083 82.7116 4.62858C82.7098 4.58633 82.6991 4.54494 82.6802 4.50712C82.6612 4.46931 82.6345 4.43593 82.6018 4.4092C82.569 4.38246 82.5309 4.36298 82.4901 4.35202C82.4493 4.34106 82.4066 4.33888 82.3648 4.34563C82.3231 4.35238 82.2832 4.36789 82.2479 4.39115C82.2126 4.41442 82.1826 4.4449 82.16 4.48059C82.1373 4.51629 82.1224 4.55638 82.1164 4.59823Z" fill="#111111"/>
<path d="M79.2674 10.0258C79.0538 13.6072 79.9116 17.1712 81.7314 20.2633C81.7874 20.3451 81.872 20.403 81.9685 20.4257C82.065 20.4485 82.1665 20.4344 82.2532 20.3863C82.3398 20.3381 82.4054 20.2593 82.4371 20.1654C82.4687 20.0714 82.4642 19.9691 82.4244 19.8783C80.8404 16.8308 79.9839 13.4579 79.9219 10.024C79.9219 9.60226 79.3059 9.64076 79.2674 10.0258Z" fill="#111111"/>
<path d="M80.923 22.5366C68.7465 28.0211 52.1049 36.4718 45.2003 48.4051C37.9885 60.8695 45.3884 74.9718 55.4378 83.2423C61.0723 87.851 67.6597 91.1513 74.7245 92.905C74.8471 92.9407 74.9788 92.9263 75.0907 92.8649C75.2026 92.8036 75.2855 92.7003 75.3213 92.5777C75.357 92.4552 75.3426 92.3235 75.2812 92.2116C75.2199 92.0997 75.1166 92.0167 74.994 91.981C62.9628 88.8389 51.6683 81.3558 45.9318 70.0771C42.5832 63.4945 42.0669 55.9415 45.6623 49.3291C52.2248 37.2541 68.9487 28.9416 81.1925 23.0371C81.5775 22.9251 81.2687 22.3808 80.923 22.5366Z" fill="#111111"/>
<path d="M94.7816 6.33073C95.9316 9.95179 96.5033 13.7316 96.4756 17.5307C96.4756 17.6379 96.5182 17.7408 96.594 17.8166C96.6698 17.8924 96.7726 17.935 96.8799 17.935C96.9871 17.935 97.0899 17.8924 97.1657 17.8166C97.2415 17.7408 97.2841 17.6379 97.2841 17.5307C97.4772 13.6254 96.8204 9.72472 95.3591 6.09798C95.3239 6.02791 95.2637 5.97364 95.1903 5.94593C95.117 5.91823 95.0359 5.91912 94.9632 5.94843C94.8905 5.97774 94.8314 6.03332 94.7978 6.10414C94.7641 6.17497 94.7584 6.25585 94.7816 6.33073Z" fill="#111111"/>
<path d="M98.3608 7.7544C98.8814 10.7796 98.9991 13.8604 98.7108 16.9165C98.6784 17.34 99.3679 17.417 99.4423 17.032C99.9689 13.8935 99.8245 10.6791 99.0188 7.6004C98.9383 7.1384 98.2838 7.33177 98.3608 7.7544Z" fill="#111111"/>
<path d="M101.787 12.1818C101.923 14.2992 101.754 16.4252 101.287 18.4949C100.971 19.9553 99.7118 22.0728 100.055 23.5375C100.33 24.7293 101.791 25.2639 102.711 25.8466C113.947 32.9595 132.257 45.7546 131.043 59.0293C129.939 71.1043 115.468 82.4478 104.173 87.0538C103.598 87.2883 103.868 88.2516 104.443 88.0163C115.22 83.6019 127.11 75.0803 131.004 63.5723C136.265 48.0323 118.341 34.9545 104.597 25.963C102.308 24.4659 102.059 24.5175 101.518 23.1919C100.905 21.6913 101.319 22.1769 101.98 19.0339C102.436 16.7676 102.578 14.4493 102.403 12.1441C102.395 12.065 102.356 11.9922 102.296 11.9408C102.235 11.8894 102.157 11.8634 102.077 11.8683C101.998 11.8731 101.923 11.9084 101.869 11.9668C101.815 12.0252 101.786 12.1022 101.787 12.1818Z" fill="#111111"/>
<path d="M88.0443 8.37019C88.0098 8.26758 87.937 8.18222 87.8412 8.13184C87.7454 8.08146 87.6338 8.06995 87.5297 8.09969C87.4257 8.12943 87.337 8.19814 87.2823 8.29154C87.2275 8.38493 87.2109 8.49584 87.2358 8.60119C88.3155 13.6438 89.8555 18.9962 86.7353 23.6144C84.0814 27.5423 79.8867 30.6249 76.4575 33.8152C69.8793 39.9454 62.9992 46.3303 58.1228 53.9997C57.6231 53.5297 57.0126 53.1938 56.3481 53.0233C55.6837 52.8529 54.9869 52.8534 54.3227 53.0249C54.0523 53.0967 54.0917 53.6707 54.439 53.6374C55.0741 53.5766 55.715 53.642 56.3247 53.8299C56.7317 53.9935 57.1129 54.2155 57.456 54.4888C57.4321 54.5486 57.4269 54.6142 57.4412 54.6769C59.9568 67.0249 68.236 75.7548 75.2255 78.0499C75.3243 78.0792 75.4304 78.0718 75.5241 78.029C75.6178 77.9862 75.6929 77.911 75.7356 77.8172C75.7782 77.7234 75.7855 77.6174 75.7561 77.5186C75.7267 77.4199 75.6625 77.3351 75.5755 77.2799C71.036 74.8107 67.109 72.1971 63.9888 67.9647C61.2062 64.0303 59.2091 59.5957 58.107 54.9044C58.1649 54.9061 58.2223 54.8939 58.2745 54.869C58.3266 54.844 58.3721 54.807 58.4072 54.7609C64.6197 46.3697 71.8769 39.2437 79.5402 32.2026C82.8109 29.1987 87.0083 26.1204 88.7023 21.8863C90.3963 17.6522 89.3235 12.5877 88.0443 8.37019Z" fill="#111111"/>
<path d="M122.728 51.6382C122.101 51.5151 121.454 51.5509 120.844 51.7423C120.235 51.9336 119.683 52.2745 119.24 52.7337C112.66 46.3483 106.447 39.595 100.632 32.5063C97.6343 28.7692 94.682 25.0741 93.5489 20.3036C92.4455 15.6433 92.9364 11.0286 92.8559 6.2922C92.8498 5.9072 92.1918 5.75145 92.1244 6.17583C91.4455 10.6251 91.5497 15.1587 92.4324 19.5721C93.3608 24.1142 95.7014 27.6973 98.5145 31.3128C104.612 39.1493 111.4 46.9946 119.006 53.4696C117.687 55.4952 116.571 57.6845 115.26 59.7223C113.784 61.8282 112.065 63.7533 110.14 65.458C107.243 68.258 104.481 71.1936 101.595 73.9656C101.325 74.3156 101.787 74.7732 102.057 74.4661C105.097 71.6171 107.985 68.615 111.025 65.7275C114.684 62.0999 117.726 57.9002 120.033 53.2937C120.048 53.2672 120.059 53.2394 120.068 53.2106C120.827 52.6174 121.763 52.2944 122.728 52.2927C123.074 52.249 123.036 51.7126 122.728 51.6382Z" fill="#111111"/>
<path d="M91.8552 115.578C91.8552 114.727 90.8166 114.725 90.8166 115.578C90.7369 116.271 91.8552 116.271 91.8552 115.578Z" fill="#111111"/>
<path d="M110.487 56.8751C109.584 56.7916 108.673 56.9235 107.831 57.2601C107.523 57.3756 107.331 56.8751 107.6 56.722C108.495 56.2282 109.503 55.9761 110.525 55.9905C110.627 55.7782 110.744 55.5735 110.875 55.378C111.116 54.8862 111.245 54.3475 111.254 53.8001C111.263 53.2527 111.152 52.7101 110.928 52.2105C110.704 51.711 110.373 51.2669 109.958 50.9095C109.543 50.5522 109.055 50.2905 108.528 50.1429C108.839 49.1611 108.944 48.1256 108.836 47.1014C108.764 46.592 108.543 46.1154 108.2 45.7317C107.857 45.348 107.409 45.0743 106.911 44.9454C106.218 44.8299 105.279 45.0696 104.947 44.4449C104.852 44.2134 104.813 43.9629 104.832 43.7134C104.782 43.223 104.629 42.7488 104.382 42.3221C104.135 41.8954 103.8 41.5261 103.4 41.2386C103 40.9511 102.543 40.752 102.06 40.6544C101.576 40.5569 101.078 40.5631 100.598 40.6728C100.163 41.1893 99.9305 41.8459 99.9431 42.5208C99.9375 42.5932 99.9072 42.6615 99.8571 42.7141C99.807 42.7667 99.7403 42.8004 99.6683 42.8094C99.5962 42.8185 99.5232 42.8024 99.4617 42.7638C99.4001 42.7252 99.3538 42.6666 99.3306 42.5978C99.2607 42.1256 99.2934 41.644 99.4262 41.1857C99.5591 40.7273 99.7891 40.3029 100.101 39.9413C99.6876 37.4641 96.8919 35.9495 93.5949 37.3241C93.44 36.5125 93.0329 35.7704 92.4317 35.2036C91.8304 34.6367 91.0657 34.274 90.2463 34.1671C89.4246 34.0923 88.5977 34.2343 87.848 34.5788C87.0983 34.9233 86.452 35.4584 85.9737 36.1306C85.2177 35.604 84.32 35.3187 83.3987 35.3123C82.4774 35.306 81.5758 35.5788 80.8126 36.095C80.0495 36.6112 79.4606 37.3465 79.1236 38.2039C78.7866 39.0614 78.7172 40.0009 78.9247 40.8985C79.7846 41.5865 80.4263 42.5094 80.7718 43.555C80.8803 43.8648 80.3921 44.0529 80.2713 43.7851C79.9567 43.1114 79.5023 42.5123 78.9382 42.0279C78.3741 41.5434 77.7132 41.1847 76.9997 40.9755C72.2003 40.7235 69.4887 44.192 69.9166 47.1346C69.2578 47.2056 68.6251 47.4312 68.07 47.7932C67.515 48.1551 67.0534 48.6432 66.7229 49.2174C66.3923 49.7917 66.2022 50.436 66.168 51.0977C66.1337 51.7594 66.2564 52.4198 66.5259 53.0251C64.9868 53.6796 63.3313 54.5651 62.7153 56.1428C62.1028 57.7983 62.8308 59.6848 63.7548 61.1863C64.5633 62.5338 65.7183 63.9189 67.2548 64.2654C68.0053 63.7261 68.8371 63.3102 69.7188 63.0334C69.9866 62.9511 70.2193 63.3414 69.9883 63.4954C68.4921 64.6591 67.7221 64.7598 67.1778 65.5744C67.132 66.4355 67.3232 67.2927 67.7304 68.0527C68.1377 68.8128 68.7455 69.4467 69.4878 69.8855C70.4633 70.3732 71.5331 70.6429 72.6232 70.6762C73.7133 70.7094 74.7975 70.5053 75.8009 70.078C75.8863 70.9502 76.217 71.7804 76.7548 72.4724C77.2926 73.1643 78.0154 73.6897 78.8396 73.9877C79.6637 74.2857 80.5555 74.344 81.4114 74.156C82.2674 73.968 83.0525 73.5412 83.6759 72.9253C83.8159 74.6954 83.9113 76.4716 83.9279 78.2776C83.9279 78.8901 84.9149 78.8901 84.8904 78.2776C84.7277 74.264 84.8484 70.0666 83.7416 66.1781C83.9857 65.8526 83.7416 65.2629 83.2734 65.4204C81.9609 65.8824 79.9239 65.2664 79.8469 63.6118C79.8637 63.2819 79.9461 62.9587 80.0894 62.6611C80.2326 62.3635 80.4339 62.0975 80.6813 61.8786C80.9287 61.6598 81.2173 61.4926 81.5302 61.3868C81.8431 61.281 82.174 61.2387 82.5034 61.2624C82.5708 61.261 82.6358 61.2378 82.6888 61.1963C82.7418 61.1547 82.7799 61.097 82.7972 61.032C82.8146 60.9669 82.8104 60.898 82.7852 60.8355C82.7599 60.7731 82.7151 60.7205 82.6574 60.6858C82.4948 60.6074 82.3223 60.5515 82.1447 60.5195C82.2427 60.361 82.2998 60.1806 82.3109 59.9945C82.4651 58.5129 82.9952 57.0952 83.8509 55.8759C84.1331 55.5226 84.4994 55.2459 84.9163 55.071C85.3332 54.8961 85.7873 54.8286 86.2371 54.8749C86.512 54.9103 86.7899 54.8376 87.0122 54.6721C87.2345 54.5065 87.3839 54.2612 87.4288 53.9876C87.5148 53.6313 87.6756 53.2974 87.9005 53.0081C88.1255 52.7187 88.4095 52.4805 88.7336 52.3094C89.0577 52.1382 89.4145 52.038 89.7803 52.0154C90.1461 51.9927 90.5126 52.0482 90.8553 52.1781C90.9613 52.2164 91.0739 52.2327 91.1863 52.2261C91.2988 52.2194 91.4087 52.19 91.5095 52.1396C91.6102 52.0892 91.6996 52.0188 91.7723 51.9328C91.845 51.8468 91.8995 51.7469 91.9324 51.6391C92.0208 51.3342 92.1692 51.0499 92.3687 50.8028C92.5683 50.5558 92.815 50.3511 93.0946 50.2005C93.3742 50.05 93.681 49.9567 93.9971 49.926C94.3131 49.8954 94.6321 49.9281 94.9354 50.0221C95.196 50.1044 95.4778 50.0873 95.7266 49.9743C95.9754 49.8612 96.1735 49.6601 96.2829 49.4096C96.3685 49.119 96.5243 48.8539 96.7364 48.6375C96.9486 48.4212 97.2106 48.2603 97.4996 48.1691C97.7885 48.0778 98.0954 48.0589 98.3933 48.1141C98.6912 48.1693 98.971 48.2969 99.2081 48.4856C100.171 49.2163 100.209 50.4106 100.44 51.4878C101.685 56.8305 103.208 62.8243 100.633 67.733C99.3972 70.0205 97.3257 71.7422 94.8509 72.5384C92.376 73.3346 89.6892 73.1437 87.3518 72.0056C86.9712 71.8053 86.6973 72.3136 87.0018 72.5831C88.5495 73.7225 90.4586 74.2602 92.3734 74.096C92.456 75.7593 92.6548 77.4147 92.9684 79.0503C92.9773 79.18 93.0328 79.3022 93.1249 79.394C93.2169 79.4859 93.3392 79.5413 93.4689 79.5499C94.2389 79.5893 95.0571 79.7914 95.6634 79.2043C95.7292 79.1378 95.7708 79.0513 95.7817 78.9584C95.7925 78.8655 95.7719 78.7717 95.7231 78.6919C95.6743 78.6121 95.6003 78.551 95.5127 78.5182C95.4251 78.4855 95.3291 78.483 95.2399 78.5113C94.7942 78.6064 94.337 78.6359 93.8828 78.5988C93.7612 77.0534 93.5207 75.5196 93.1636 74.0111C94.9062 73.7261 96.5628 73.0538 98.0112 72.0437C99.4597 71.0337 100.663 69.7116 101.533 68.1749C102.777 68.195 103.982 67.7441 104.907 66.9127C105.832 66.0813 106.408 64.9309 106.52 63.6923C107.288 63.9155 108.111 63.8558 108.838 63.5239C109.566 63.192 110.15 62.6099 110.485 61.8836C110.806 61.15 110.974 60.359 110.981 59.5583C110.988 58.7577 110.832 57.964 110.524 57.2251C110.564 57.1814 110.525 57.0274 110.487 56.8751ZM75.8036 51.2533C75.7496 51.2197 75.7091 51.1685 75.6889 51.1083C75.6687 51.0481 75.6702 50.9827 75.693 50.9235C75.7157 50.8642 75.7585 50.8147 75.8138 50.7836C75.8691 50.7524 75.9336 50.7415 75.9961 50.7528C76.3946 50.9389 76.8281 51.0385 77.2679 51.0448C77.7077 51.0512 78.1439 50.9642 78.5476 50.7897C78.9513 50.6151 79.3135 50.357 79.6102 50.0322C79.9068 49.7075 80.1313 49.3235 80.2687 48.9056C80.3842 48.5976 80.8926 48.6361 80.8812 48.9826C80.8269 51.563 77.7417 52.3015 75.8036 51.2533ZM91.5089 40.629C90.0468 40.8215 88.4298 41.6685 88.6608 43.4001C88.6993 43.7081 88.2373 43.7501 88.1603 43.478C87.6598 41.476 89.6233 40.09 91.4713 40.09C91.7399 40.09 91.8178 40.5905 91.5089 40.629Z" fill="#111111"/>
<path d="M106.714 98.8332C106.676 98.2942 106.174 98.4578 105.636 98.4097C103.13 98.1848 100.855 89.9799 100.593 88.0155C100.091 84.1095 99.8467 80.1745 99.8619 76.2363C99.8612 76.1159 99.8238 75.9986 99.7548 75.9C99.6857 75.8014 99.5882 75.7262 99.4753 75.6843C99.3624 75.6425 99.2395 75.6361 99.1228 75.6659C99.0062 75.6957 98.9014 75.7604 98.8224 75.8513C98.1535 76.9136 97.7205 78.1071 97.5528 79.3513C96.8608 82.4042 95.3731 85.2197 93.2408 87.5115C92.6468 88.172 91.8698 88.6411 91.0087 88.859C88.8142 89.3587 87.7423 87.7775 86.8507 86.3215C85.7421 84.5068 84.6124 82.7445 83.5021 80.9315C82.2289 78.8552 81.5631 78.0834 79.1901 78.0834C79.0988 78.0859 79.0093 78.1098 78.9289 78.1531C78.8485 78.1964 78.7794 78.258 78.727 78.3329C78.6747 78.4077 78.6407 78.4938 78.6276 78.5842C78.6146 78.6746 78.6229 78.7668 78.6519 78.8534C80.7301 84.5505 79.6932 100.256 75.6874 100.333C75.2639 100.342 74.8746 102.9 76.1494 103.105C81.6751 103.99 87.3118 105.096 92.8558 104.491C97.5126 103.982 101.812 103.768 105.906 102.027C106.133 101.935 106.325 101.774 106.456 101.567C106.588 101.36 106.651 101.117 106.637 100.872L106.714 98.8332ZM95.7048 87.8615C93.5173 89.4882 92.1996 92.7178 88.9297 91.442C86.0789 90.3299 84.2756 86.2935 82.6551 83.9354C82.4678 83.6624 82.9254 83.3955 83.1171 83.6659C84.6658 85.8534 86.1594 89.0533 88.5421 90.4034C92.0079 92.3634 92.9573 88.6088 95.3942 87.3234C95.4655 87.2822 95.5503 87.2711 95.6299 87.2924C95.7095 87.3137 95.7774 87.3658 95.8186 87.4372C95.8598 87.5085 95.8709 87.5933 95.8496 87.6729C95.8282 87.7525 95.7762 87.8203 95.7048 87.8615Z" fill="#50C85A"/>
<path d="M75.8421 97.6782C75.8186 95.9224 75.6512 94.1715 75.3416 92.4431C75.2541 91.9435 74.4579 92.1342 74.5716 92.6741C74.9216 94.3278 75.1063 96.0271 75.3031 97.7167C75.3373 97.9871 75.8421 98.0247 75.8421 97.6782Z" fill="#111111"/>
<path d="M104.597 93.905C104.744 91.8426 104.783 89.7739 104.712 87.7074C104.712 87.1693 103.828 87.1684 103.865 87.7074C103.904 89.7864 103.841 91.8671 104.019 93.905C104.019 93.9816 104.05 94.055 104.104 94.1092C104.158 94.1633 104.232 94.1938 104.308 94.1938C104.385 94.1938 104.458 94.1633 104.512 94.1092C104.567 94.055 104.597 93.9816 104.597 93.905Z" fill="#111111"/>
<path d="M164.803 139.483C164.887 139.471 164.963 139.43 165.018 139.366C165.073 139.302 165.104 139.221 165.104 139.137C165.104 139.052 165.073 138.971 165.018 138.907C164.963 138.843 164.887 138.802 164.803 138.79C163.625 138.697 162.455 138.517 161.303 138.251C161.273 136.993 161.033 135.749 160.593 134.571C161.753 134.8 162.943 134.834 164.115 134.671C164.201 134.671 164.285 134.637 164.346 134.576C164.407 134.514 164.442 134.431 164.442 134.344C164.442 134.257 164.407 134.174 164.346 134.113C164.285 134.051 164.201 134.017 164.115 134.017C162.844 133.978 161.573 133.863 160.302 133.863C159.93 133.039 159.473 132.257 158.938 131.528C160.225 131.618 161.516 131.64 162.806 131.591C163.229 131.591 163.23 130.93 162.806 130.898C161.461 130.785 160.111 130.76 158.764 130.822C158.714 130.83 158.666 130.847 158.622 130.873C158.579 130.9 158.542 130.934 158.512 130.975C157.96 130.299 157.354 129.669 156.698 129.093C157.573 128.972 158.448 128.831 159.303 128.628C159.653 128.551 159.61 127.935 159.225 127.973C158.15 128.101 157.082 128.286 156.026 128.527C155.074 127.771 154.062 127.094 153 126.501C153.815 126.356 154.621 126.167 155.414 125.933C155.838 125.817 155.645 125.233 155.222 125.278C154.138 125.419 153.068 125.651 152.024 125.973C152.111 125.973 150.284 125.125 149.043 124.634C150.466 124.212 151.841 123.641 153.144 122.93C153.208 122.895 153.258 122.837 153.282 122.768C153.306 122.698 153.303 122.623 153.274 122.555C153.245 122.488 153.192 122.434 153.125 122.403C153.058 122.373 152.983 122.369 152.913 122.392C151.28 122.876 149.697 123.518 148.188 124.308C146.459 123.669 146 123.589 146.088 123.589C147.514 122.97 148.906 122.275 150.257 121.506C150.322 121.461 150.369 121.395 150.39 121.319C150.411 121.243 150.405 121.162 150.373 121.089C150.342 121.017 150.286 120.958 150.215 120.923C150.145 120.887 150.065 120.877 149.988 120.894C148.817 121.323 147.689 121.858 146.615 122.493C146.978 121.724 147.111 120.866 147 120.023C146.888 119.179 146.535 118.386 145.985 117.738C144.06 115.505 140.98 114.273 138.208 113.538C132.433 112.075 126.391 112.499 120.578 113.499C114.348 114.55 108.224 116.15 102.277 118.281C103.254 116.975 103.18 115.181 103.371 113.615C103.775 110.797 103.968 107.953 103.948 105.107C103.943 105.008 103.901 104.915 103.829 104.847C103.757 104.778 103.662 104.74 103.563 104.74C103.464 104.74 103.369 104.778 103.298 104.847C103.226 104.915 103.183 105.008 103.179 105.107C103.128 108.442 102.884 111.771 102.447 115.078C102.45 115.871 102.293 116.656 101.985 117.388C101.023 119.196 98.9052 119.467 97.058 119.62C92.3264 119.939 87.577 119.888 82.8533 119.467C82.8148 119.467 80.9283 119.427 80.9283 119.467C80.5783 119.196 80.5048 117.388 80.4278 116.964C79.6963 113.384 78.9272 109.804 78.4652 106.146C78.3882 105.877 77.8527 105.838 77.8877 106.223C78.403 110.572 79.2719 114.886 80.1557 119.131C70.6864 115.991 60.5303 114.714 50.6332 113.807C46.2835 113.384 41.5104 112.729 37.3524 114.539C36.2725 114.959 35.2861 115.589 34.4497 116.392C33.6133 117.194 32.9432 118.153 32.4779 119.215C32.0126 120.277 31.7611 121.419 31.7378 122.578C31.7145 123.737 31.9199 124.889 32.3422 125.969C31.0437 126.368 29.7701 126.845 28.528 127.395C28.5087 127.337 28.4742 127.285 28.4281 127.244C28.3819 127.204 28.3258 127.176 28.2655 127.165C27.2309 126.808 26.2156 126.396 25.224 125.933C24.9545 125.779 24.685 126.241 24.916 126.472C25.7086 127.102 26.6237 127.56 27.6032 127.818C26.6249 128.285 25.6607 128.799 24.7209 129.358C23.3367 129.166 21.99 128.819 20.6084 128.551C20.5303 128.535 20.4492 128.549 20.3807 128.59C20.3121 128.63 20.261 128.695 20.2371 128.771C20.2132 128.847 20.2183 128.929 20.2513 129.001C20.2843 129.074 20.3429 129.131 20.4159 129.163C21.4643 129.575 22.5587 129.858 23.6753 130.007C22.1981 130.956 20.8027 132.027 19.5033 133.208C18.2164 132.973 16.9124 132.843 15.6043 132.821C15.2543 132.782 15.1397 133.369 15.5273 133.475C16.5809 133.716 17.6521 133.872 18.7307 133.942C17.4878 135.144 16.3852 136.483 15.4442 137.934C14.2664 137.779 13.1254 137.516 11.9442 137.401C11.5592 137.325 11.5215 137.902 11.8672 138.056C12.8827 138.396 13.9357 138.612 15.0032 138.7C14.4616 139.715 14.0713 140.804 13.8447 141.932C13.7117 141.932 14.0415 141.932 10.1355 142.632C10.0576 142.652 9.98955 142.7 9.94404 142.766C9.89852 142.832 9.87862 142.913 9.88802 142.993C9.89742 143.073 9.93549 143.147 9.99517 143.201C10.0548 143.255 10.1321 143.285 10.2125 143.287C11.3969 143.242 12.5718 143.058 13.7125 142.736C13.5498 144.079 13.6448 145.44 13.9925 146.747C12.7238 146.713 11.4551 146.818 10.209 147.06C9.90103 147.098 9.97803 147.599 10.286 147.637C11.0046 147.663 11.724 147.65 12.4412 147.599C13.0325 147.603 13.623 147.554 14.2052 147.45C14.5964 148.59 15.1622 149.662 15.8825 150.628C14.737 150.896 13.6126 151.246 12.5182 151.678C12.1682 151.832 12.2872 152.371 12.6722 152.255C13.925 152.002 15.159 151.663 16.3655 151.24C16.9188 151.898 17.5318 152.502 18.1969 153.046C17.279 153.847 16.3043 154.642 15.3287 155.373C15.0207 155.605 15.2902 156.143 15.6367 155.913C16.7509 155.194 17.8113 154.396 18.8094 153.523C19.6123 154.113 20.4608 154.638 21.3469 155.093C20.2603 155.958 19.3306 157.003 18.5985 158.184C18.3675 158.569 18.9485 158.877 19.176 158.534C19.9579 157.357 20.9202 156.312 22.0277 155.435C22.7005 155.755 23.3883 156.048 24.0865 156.31C23.5964 157.333 23.2027 158.399 22.9105 159.494C22.795 159.879 23.2947 160.107 23.4487 159.764C23.9582 158.726 24.3792 157.648 24.7069 156.539C25.5635 156.848 26.4324 157.126 27.3013 157.384C27.0772 157.759 26.9322 158.176 26.8752 158.609C26.7212 159.221 26.5672 159.802 26.4517 160.418C26.3747 160.879 26.9907 161.031 27.1062 160.649C27.3539 159.615 27.6571 158.594 28.0144 157.592C28.9903 157.868 29.97 158.135 30.9535 158.392C30.7785 158.786 30.6692 159.227 30.5318 159.61C30.327 160.182 30.1818 160.803 30.0313 161.381C29.9928 161.726 30.5318 161.88 30.6438 161.534C31.0479 160.571 31.3953 159.585 31.6842 158.581C32.6642 158.832 33.6468 159.074 34.632 159.307C34.5034 159.882 34.3984 160.454 34.2628 160.996C34.1088 161.649 33.8778 162.265 33.7623 162.921C33.753 162.987 33.7669 163.055 33.8017 163.113C33.8366 163.17 33.8901 163.214 33.9534 163.236C34.0167 163.259 34.0859 163.259 34.1493 163.237C34.2126 163.214 34.2663 163.171 34.3013 163.113C34.8904 161.983 35.2454 160.746 35.3452 159.476C36.6868 159.789 38.0285 160.091 39.3702 160.382C38.948 161.684 38.592 163.007 38.3035 164.345C38.291 164.419 38.3065 164.495 38.3469 164.558C38.3874 164.621 38.4498 164.666 38.5221 164.685C38.5944 164.705 38.6712 164.696 38.7376 164.662C38.804 164.627 38.8552 164.569 38.881 164.499C39.3185 163.187 39.7202 161.874 40.0562 160.53C40.0562 160.53 41.7125 160.885 42.5342 161.055C42.1026 162.044 41.8062 163.086 41.653 164.154C41.6404 164.204 41.6378 164.257 41.6455 164.308C41.6531 164.36 41.6708 164.409 41.6976 164.454C41.7244 164.498 41.7597 164.537 41.8015 164.568C41.8433 164.599 41.8908 164.622 41.9413 164.634C41.9918 164.647 42.0443 164.65 42.0958 164.642C42.1473 164.634 42.1968 164.617 42.2415 164.59C42.2861 164.563 42.3251 164.528 42.3561 164.486C42.3871 164.444 42.4095 164.397 42.4222 164.346C42.6571 163.286 42.9492 162.24 43.2972 161.211C44.4055 161.436 45.5138 161.653 46.6222 161.862C46.1916 162.954 45.8198 164.068 45.5083 165.2C45.3543 165.701 46.0858 165.893 46.2783 165.393C46.7096 164.287 47.0737 163.156 47.3685 162.006C48.6285 162.24 49.8897 162.463 51.152 162.678C50.745 163.75 50.4154 164.85 50.1659 165.97C50.1404 166.067 50.1544 166.17 50.205 166.257C50.2555 166.344 50.3384 166.407 50.4354 166.432C50.5324 166.458 50.6356 166.444 50.7222 166.393C50.8089 166.343 50.8719 166.26 50.8974 166.163C51.298 165.066 51.6099 163.939 51.8302 162.792C53.0517 162.996 54.2746 163.191 55.499 163.377C54.9238 164.665 54.491 166.012 54.2084 167.394C54.1699 167.779 54.6695 168.049 54.862 167.664C55.4621 166.325 55.9069 164.921 56.1877 163.481C57.296 163.646 58.4043 163.805 59.5127 163.956C59.1522 165.089 58.8968 166.253 58.7497 167.432C58.7112 167.856 59.3272 167.856 59.4427 167.509C59.8105 166.384 60.0687 165.225 60.2135 164.05C61.274 164.192 62.3342 164.327 63.3942 164.456C63.0509 165.742 62.7726 167.044 62.5603 168.357C62.4833 168.78 63.0993 168.97 63.2148 168.549C63.5695 167.228 63.8528 165.888 64.0635 164.537C64.3068 164.566 66.1635 164.773 66.8522 164.845C66.6173 165.576 66.4437 166.326 66.3333 167.086C66.2563 167.471 66.7944 167.74 66.9878 167.356C67.335 166.587 67.5493 165.764 67.6213 164.924C68.7005 165.032 69.7796 165.133 70.8588 165.227C70.4476 166.413 70.1814 167.645 70.066 168.895C70.0275 169.319 70.6785 169.396 70.7975 169.011C71.1257 167.809 71.3847 166.536 71.6393 165.295C72.5306 165.369 73.4222 165.439 74.3142 165.504C74.3116 166.226 74.1898 166.943 73.9537 167.626C73.9319 167.709 73.9413 167.798 73.9799 167.875C74.0185 167.952 74.0838 168.013 74.1636 168.046C74.2435 168.078 74.3326 168.081 74.4143 168.053C74.496 168.026 74.5649 167.969 74.6082 167.894C74.9614 167.168 75.1142 166.361 75.0509 165.556C75.8845 165.615 76.7184 165.668 77.5525 165.717C77.264 166.802 76.8976 167.864 76.4562 168.895C76.4308 168.944 76.4159 168.998 76.4123 169.052C76.4087 169.107 76.4165 169.162 76.4351 169.214C76.4538 169.266 76.483 169.313 76.5209 169.353C76.5587 169.393 76.6044 169.424 76.6551 169.446C76.7057 169.467 76.7602 169.477 76.8152 169.477C76.8702 169.476 76.9244 169.464 76.9744 169.441C77.0244 169.418 77.0692 169.385 77.1059 169.344C77.1426 169.304 77.1704 169.255 77.1877 169.203C77.6848 168.101 78.0567 166.946 78.2963 165.76C79.2471 165.814 80.1985 165.862 81.1505 165.904C80.8967 167.22 80.7684 168.557 80.7673 169.896C80.7673 170.246 81.3798 170.357 81.4218 169.973C81.5845 168.612 81.6887 167.261 81.8724 165.935C83.0041 165.982 84.1355 166.021 85.2665 166.051C85.2359 167.12 85.0609 168.216 85.0793 169.28C85.0848 169.353 85.1152 169.421 85.1652 169.474C85.2153 169.526 85.282 169.56 85.3541 169.569C85.4261 169.578 85.4991 169.562 85.5607 169.523C85.6222 169.485 85.6685 169.426 85.6918 169.357C85.9128 168.276 86.0035 167.173 85.9622 166.07C87.3505 166.103 88.7391 166.125 90.128 166.136C89.8655 167.055 89.526 167.973 89.3493 168.895C89.2723 169.28 89.8113 169.55 90.0038 169.165C90.4212 168.194 90.7271 167.179 90.9155 166.139C91.8664 166.143 92.8178 166.14 93.7698 166.133C93.5568 167.093 93.4173 168.068 93.3524 169.049C93.3505 169.137 93.3813 169.222 93.439 169.288C93.4966 169.353 93.5767 169.395 93.6637 169.405C93.7506 169.415 93.838 169.391 93.9087 169.34C93.9793 169.288 94.0281 169.212 94.0454 169.126C94.2458 168.135 94.3805 167.114 94.4899 166.126C95.2179 166.118 95.9471 166.107 96.6774 166.091C96.4318 167.247 96.2481 168.415 96.127 169.591C96.0955 169.977 96.7045 170.053 96.82 169.668C97.108 168.487 97.3194 167.289 97.4527 166.08C98.6007 166.053 99.749 166.017 100.898 165.974C100.818 167.387 100.515 168.837 100.515 170.249C100.515 170.634 101.128 170.749 101.208 170.326C101.483 168.881 101.624 167.414 101.629 165.944C102.8 165.896 103.972 165.839 105.144 165.773C105.096 166.448 105.145 167.125 105.288 167.786C105.309 167.857 105.354 167.919 105.416 167.96C105.478 168.001 105.553 168.019 105.627 168.01C105.701 168 105.769 167.965 105.819 167.91C105.87 167.855 105.898 167.784 105.901 167.71C105.917 167.048 105.938 166.389 105.915 165.729C106.706 165.681 107.497 165.63 108.287 165.575C108.397 167.15 108.374 168.717 108.519 170.288C108.525 170.381 108.567 170.468 108.634 170.531C108.702 170.594 108.792 170.63 108.885 170.63C108.977 170.63 109.067 170.594 109.135 170.531C109.203 170.468 109.244 170.381 109.25 170.288C109.346 168.695 109.255 167.097 108.982 165.525C109.979 165.452 110.975 165.373 111.97 165.288C111.998 166.047 112.067 166.804 112.175 167.556C112.252 167.94 112.788 167.824 112.83 167.478C112.867 166.724 112.818 165.968 112.683 165.225C113.815 165.125 114.945 165.016 116.074 164.899C116.058 166.376 116.223 167.85 116.564 169.287C116.679 169.672 117.285 169.596 117.257 169.21C117.148 167.74 116.913 166.299 116.719 164.831C117.75 164.72 118.784 164.6 119.821 164.471C119.842 165.327 120.003 166.174 120.298 166.978C120.414 167.286 120.953 167.286 120.911 166.901C120.855 166.052 120.734 165.209 120.548 164.378C121.3 164.282 122.052 164.178 122.804 164.069C123.586 165.266 124.156 166.588 124.49 167.978C124.606 168.479 125.376 168.286 125.26 167.747C124.976 166.378 124.404 165.085 123.581 163.954C124.689 163.786 125.794 163.603 126.896 163.405C127.535 164.531 128.094 165.7 128.57 166.905C128.724 167.255 129.218 166.983 129.148 166.674C128.852 165.454 128.328 164.302 127.603 163.278C128.74 163.064 129.873 162.831 131.002 162.578C131.59 163.828 132.183 165.075 132.882 166.253C132.923 166.308 132.98 166.347 133.046 166.365C133.111 166.383 133.181 166.378 133.244 166.351C133.306 166.325 133.358 166.277 133.39 166.218C133.422 166.158 133.433 166.089 133.421 166.022C132.985 164.761 132.413 163.551 131.715 162.413C132.742 162.172 133.763 161.909 134.778 161.626C135.277 162.517 135.826 163.38 136.423 164.21C136.446 164.248 136.476 164.281 136.511 164.307C136.547 164.333 136.588 164.352 136.631 164.363C136.674 164.373 136.719 164.375 136.762 164.368C136.806 164.362 136.848 164.346 136.886 164.323C136.924 164.3 136.957 164.27 136.983 164.234C137.01 164.199 137.029 164.158 137.039 164.115C137.05 164.072 137.052 164.027 137.045 163.983C137.038 163.94 137.023 163.898 137 163.86C136.589 162.99 136.076 162.173 135.471 161.425C136.567 161.109 137.653 160.764 138.729 160.393C139.12 161.416 139.454 162.498 139.926 163.513C140.08 163.898 140.618 163.59 140.539 163.244C140.286 162.171 139.882 161.14 139.339 160.181C140.226 159.864 141.104 159.525 141.974 159.165C142.41 160.177 143.004 161.112 143.733 161.938C143.788 161.993 143.861 162.025 143.938 162.03C144.015 162.035 144.091 162.012 144.152 161.965C144.213 161.918 144.255 161.85 144.27 161.774C144.285 161.699 144.272 161.62 144.234 161.553C143.751 160.656 143.143 159.789 142.607 158.898C143.631 158.459 144.641 157.986 145.635 157.481C145.946 158.48 146.496 159.389 147.237 160.13C147.298 160.181 147.376 160.21 147.456 160.211C147.536 160.212 147.614 160.185 147.677 160.136C147.74 160.086 147.784 160.016 147.802 159.938C147.82 159.86 147.81 159.778 147.775 159.706C147.215 158.89 146.729 158.026 146.321 157.125C147.321 156.595 148.302 156.028 149.263 155.424C149.952 156.302 150.746 157.094 151.626 157.781C151.934 158.012 152.203 157.55 151.976 157.319C151.307 156.517 150.522 155.832 149.798 155.084C150.934 154.345 152.037 153.548 153.109 152.693C153.703 153.356 154.432 153.883 155.247 154.24C155.597 154.394 155.748 153.855 155.478 153.701C154.822 153.275 154.198 152.802 153.61 152.286C154.684 151.398 155.704 150.449 156.282 149.859C157.022 150.701 158.006 151.29 159.097 151.545C159.183 151.567 159.275 151.556 159.352 151.512C159.429 151.468 159.487 151.396 159.512 151.311C159.537 151.226 159.527 151.134 159.486 151.056C159.445 150.977 159.374 150.918 159.29 150.89C158.323 150.614 157.446 150.089 156.746 149.368C157.312 148.747 157.835 148.088 158.313 147.397C159.041 147.953 159.851 148.391 160.713 148.697C161.063 148.811 161.252 148.273 160.944 148.118C160.181 147.72 159.418 147.322 158.678 146.85C159.07 146.239 159.426 145.606 159.742 144.953C160.992 145.484 162.28 146.048 163.601 146.464C163.951 146.579 164.178 146.04 163.87 145.851C162.621 145.27 161.337 144.765 160.026 144.34C160.23 143.871 160.413 143.393 160.573 142.91C161.923 142.885 163.273 142.993 164.602 143.234C164.672 143.23 164.74 143.204 164.794 143.159C164.848 143.114 164.887 143.053 164.904 142.985C164.921 142.916 164.916 142.844 164.89 142.779C164.863 142.713 164.816 142.658 164.756 142.622C163.493 142.144 162.13 141.993 160.794 142.184C161.087 141.134 161.253 140.052 161.289 138.962C162.414 139.367 163.609 139.544 164.803 139.483ZM36.0767 116.348C39.8882 113.692 44.8538 114.231 49.2419 114.616C59.8112 115.471 70.2841 117.261 80.538 119.963C84.7834 120.402 89.0506 120.595 93.3183 120.54C95.4778 120.482 98.4563 120.694 100.593 119.643C110.398 116.604 120.932 113.073 131.351 113.573C136.047 113.804 149.828 116.11 144.94 123.548C142.283 127.551 137.472 130.092 133.238 132.016C124.194 136.15 113.288 137.722 112.22 138.201C111.22 138.119 110.213 138.159 109.222 138.318C104.54 134.725 98.7223 132.33 93.0348 130.361C100.857 127.093 105.616 124.073 121.879 121.045C122.303 120.968 122.111 120.361 121.725 120.433C115.976 121.348 110.302 122.686 104.75 124.436C100.412 125.907 95.7044 127.565 91.7127 129.912C80.6802 126.123 69.2666 123.551 57.6752 122.242C57.2902 122.204 57.2884 122.868 57.7137 122.934C73.7358 125.457 94.8732 129.876 108.335 138.947C108.198 139.113 108.081 139.294 107.985 139.486C107.161 140.636 106.777 142.042 106.903 143.45C95.602 141.853 82.1008 140.738 70.6068 140.103C60.8715 139.49 55.8788 140.074 44.2763 134.906C40.5812 133.289 36.7312 131.441 34.422 128.015C31.8425 124.201 32.112 119.12 36.0767 116.348ZM55.7475 144.487C56.1645 144.838 56.6713 145.064 57.2105 145.142C64.7193 146.914 72.6246 145.645 79.201 141.611C104.652 143.454 107.476 145.024 108.139 144.499C111.682 146.011 115.374 146.629 119.033 147.411C122.997 148.258 127.345 148.566 130.928 146.603C131.386 146.382 131.782 146.051 132.083 145.64C132.301 145.235 132.396 144.775 132.355 144.316C132.314 143.857 132.139 143.421 131.852 143.061C131.25 142.365 130.5 141.812 129.657 141.445C125.566 139.432 120.96 138.878 116.397 138.503C124.025 137.006 131.383 134.362 138.219 130.662C143.226 134.418 143.906 137.898 141.706 142.754C139.81 146.579 136.751 149.705 132.968 151.684C124.845 156.226 115.299 156.573 106.214 156.765C86.4277 157.189 66.3342 157.612 47.0098 152.801C42.1212 151.569 36.3847 150.221 33.6905 145.486C33.0155 144.376 32.5993 143.129 32.4726 141.836C32.346 140.543 32.5122 139.238 32.959 138.018C33.9128 135.578 35.9244 134.081 38.0209 132.669C42.2367 135.502 50.3409 138.52 55.2759 139.634C54.8599 140.398 54.6825 141.268 54.7666 142.133C54.8507 142.998 55.1924 143.818 55.7475 144.487ZM155.68 149.26C151.407 153.572 145.479 156.96 139.859 159.154C133.199 161.733 126.077 162.888 118.994 163.696C88.8287 167.2 58.2718 164.927 28.9568 156.998C24.9913 155.921 20.8727 154.612 17.8312 151.686C14.9437 148.953 13.4045 145.026 14.6365 141.139C14.915 140.288 15.2819 139.469 15.7312 138.695C15.7695 138.667 15.8016 138.632 15.8254 138.592C15.8492 138.551 15.8642 138.506 15.8694 138.459C19.0098 133.225 26.5182 128.397 32.5215 126.456C33.6028 128.868 35.3555 130.917 37.5703 132.359C34.4763 134.338 31.8023 136.851 31.6894 140.792C31.5739 144.988 34.4229 148.567 37.9255 150.531C42.507 153.068 48.163 153.995 53.2853 154.993C70.0748 158.259 87.9257 158.009 105.173 157.611C115.105 157.38 125.768 157.188 134.506 151.722C138.471 149.258 141.935 145.524 143.206 140.905C143.868 139.027 143.814 136.97 143.052 135.13C142.081 133.197 140.663 131.523 138.915 130.249C141.562 128.747 143.862 126.704 145.667 124.255C150.96 125.962 157.014 128.764 159.492 134.055C161.916 139.252 159.491 145.45 155.68 149.26Z" fill="#111111"/>
</svg>
