<svg width="92" height="29" viewBox="0 0 92 29" fill="none" xmlns="http://www.w3.org/2000/svg">
<path d="M35.2852 11.3162L36.8204 7.03873H54.7306L57.8009 3.01291L63.174 1.25161L63.9416 1H65.4767L67.7794 2.25807L69.0588 2.50968L69.5705 3.01291H68.8029L68.0353 3.26453L66.756 5.02582L71.1056 7.03873H84.9221L85.4338 7.29035L89.5275 9.30326L90.551 13.0775L87.2248 17.3549L82.1076 19.871L89.0158 27.9227H80.8283L74.4318 20.3743H68.547L65.9884 27.9227H58.5685L62.9181 15.5936H83.8986V11.5678H64.1974L65.9884 7.03873L64.1974 5.02582L62.6623 6.28389L63.9416 7.03873L62.4064 11.5678H53.963L48.3341 27.9227H41.17L42.961 22.3872H36.5645L29.6563 26.1614L31.1915 22.1356L35.797 18.8646L36.8204 19.6194L41.6817 19.3678L45.0079 16.8517L46.7989 11.3162H35.2852Z" fill="#50C85A"/>
<path d="M23.2598 7.03873H8.16408L6.62892 11.3162H26.3301V15.0904H5.34962L3.5586 19.871L24.0274 19.6194L23.7715 23.142H2.53516L1 27.9227H22.7481L26.8419 25.9098L28.377 23.3936L28.8887 19.871L28.1212 17.1033L27.6094 14.0839V13.8323L27.8653 12.3226L23.2598 7.03873Z" fill="#50C85A"/>
<path d="M35.2852 11.3162L36.8204 7.03873H54.7306L57.8009 3.01291L63.174 1.25161L63.9416 1H65.4767L67.7794 2.25807L69.0588 2.50968L69.5705 3.01291H68.8029L68.0353 3.26453L66.756 5.02582L71.1056 7.03873H84.9221L85.4338 7.29035L89.5275 9.30326L90.551 13.0775L87.2248 17.3549L82.1076 19.871L89.0158 27.9227H80.8283L74.4318 20.3743H68.547L65.9884 27.9227H58.5685L62.9181 15.5936H83.8986V11.5678H64.1974L65.9884 7.03873L64.1974 5.02582L62.6623 6.28389L63.9416 7.03873L62.4064 11.5678H53.963L48.3341 27.9227H41.17L42.961 22.3872H36.5645L29.6563 26.1614L31.1915 22.1356L35.797 18.8646L36.8204 19.6194L41.6817 19.3678L45.0079 16.8517L46.7989 11.3162H35.2852Z" stroke="#50C85A"/>
<path d="M23.2598 7.03873H8.16408L6.62892 11.3162H26.3301V15.0904H5.34962L3.5586 19.871L24.0274 19.6194L23.7715 23.142H2.53516L1 27.9227H22.7481L26.8419 25.9098L28.377 23.3936L28.8887 19.871L28.1212 17.1033L27.6094 14.0839V13.8323L27.8653 12.3226L23.2598 7.03873Z" stroke="#50C85A"/>
</svg>
