<?xml version="1.0"?>
<svg width="500" height="500" xmlns="http://www.w3.org/2000/svg" xmlns:svg="http://www.w3.org/2000/svg" version="1.1">
 <g class="layer">
  <title>Layer 1</title>
  <g data-paper-data="{&quot;description&quot;:&quot;Logo for Born to Run\n====================\n\nThis logo was generated by MarkMaker at http://emblemmatic.org/markmaker/ and may be composed of elements designed by others.\n\nThe font is Faster One designed by Eduardo Tunni and released under the OFL license via Google Fonts: https://www.google.com/fonts/specimen/Faster%20One. The font includes this copyright statement: Copyright (c) 2012, Eduardo Tunni (http://www.tipo.net.ar edu@tipo.net.ar), with Reserved Font Name &#x27;Faster&#x27;\n\nMarkMaker uses semantic data from the Princeton University WordNet database http://wordnet.princeton.edu and font descriptions from Google Fonts https://www.google.com/fonts.&quot;}" fill="#212b17" fill-rule="nonzero" font-family="none" font-size="none" font-weight="none" id="svg_1" stroke-dashoffset="0" stroke-miterlimit="10" text-anchor="none">
   <g data-paper-data="{&quot;elementType&quot;:&quot;logo&quot;}" id="svg_2">
    <g data-paper-data="{&quot;elementType&quot;:&quot;text&quot;}" id="svg_3">
     <g data-paper-data="{&quot;baseline&quot;:62.5,&quot;elementType&quot;:&quot;row&quot;}" id="svg_4">
      <g data-paper-data="{&quot;baselineProportion&quot;:0.9811616954474097,&quot;fontSize&quot;:100,&quot;baseline&quot;:62.5,&quot;elementType&quot;:&quot;word&quot;}" id="svg_5">
       <path d="m34.18,238.64c1.33,0 2.3,0.29 2.9,0.85c0.6,0.57 0.9,1.44 0.9,2.62c0,1.72 -0.31,3.15 -0.93,4.26c-0.62,1.12 -1.37,1.81 -2.26,2.08l-0.02,0.21c1.66,0.39 2.5,1.73 2.5,4.05c0,2.05 -0.46,3.76 -1.36,5.15c-0.9,1.38 -2.18,2.08 -3.83,2.08l-9.48,0l3.05,-21.31l8.54,0m-3.05,12.82l-2.08,0l-0.5,3.48l2.05,0c0.46,0 0.81,-0.23 1.05,-0.68c0.24,-0.45 0.36,-1.04 0.36,-1.74c0,-0.7 -0.3,-1.06 -0.89,-1.06m-7.48,-4.73l-11.75,-1.54l11.97,0l-0.22,1.54m-1.88,13.12l-11.76,-1.54l11.98,0l-0.22,1.54m0.94,-6.58l-11.76,-1.54l11.98,0l-0.22,1.54m0.47,-3.27l-11.75,-1.54l11.98,0l-0.23,1.54m-0.94,6.55l-11.75,-1.54l11.97,0l-0.22,1.54m1.89,-13.09l-11.76,-1.54l11.95,0l-0.19,1.54m0.44,-3.27l-11.73,-1.54l11.95,0l-0.22,1.54zm7.35,3.14l-1.67,0l-0.47,3.17l1.64,0c0.85,0 1.28,-0.74 1.28,-2.22c0,-0.64 -0.26,-0.95 -0.77,-0.95" data-paper-data="{&quot;elementType&quot;:&quot;letter&quot;,&quot;baseline&quot;:62.5,&quot;baselineProportion&quot;:1,&quot;fontSize&quot;:100}" fill="#50c85a" id="svg_6"/>
       <path d="m57.5,241.57c1.99,0 3.42,0.47 4.27,1.41c0.85,0.95 1.27,2.41 1.27,4.42c0,0.98 -0.1,2.16 -0.3,3.55c-0.46,3.27 -1.28,5.66 -2.44,7.15c-1.16,1.5 -3,2.25 -5.49,2.25c-1.96,0 -3.35,-0.47 -4.18,-1.41c-0.84,-0.95 -1.25,-2.4 -1.25,-4.39c0,-1.02 0.1,-2.22 0.3,-3.61c0.47,-3.27 1.27,-5.66 2.42,-7.15c1.14,-1.49 2.95,-2.23 5.41,-2.23m-1.89,13.61c0.54,0 0.94,-0.08 1.21,-0.24c0.27,-0.16 0.45,-0.51 0.54,-1.06l1.06,-7.12l-1.69,0c-0.52,0 -0.92,0.08 -1.21,0.24c-0.28,0.16 -0.46,0.5 -0.51,1.02l-1.03,7.16l1.64,0m-6.38,-6.72l-0.25,1.44l-10.84,-1.44l11.09,0m-0.52,3.27c-0.07,0.7 -0.12,1.19 -0.14,1.44l-10.92,-1.44l11.06,0m-0.17,3.27c0,0.36 0.04,0.84 0.11,1.43l-10.9,-1.43l10.79,0m1.66,-9.82c-0.22,0.59 -0.38,1.04 -0.47,1.36l-10.48,-1.36l10.95,0m-1.08,13.12c0.22,0.55 0.46,0.97 0.72,1.26l-9.67,-1.26l8.95,0m3.49,-16.4c-0.44,0.32 -0.82,0.7 -1.14,1.13l-8.51,-1.13l9.65,0z" data-paper-data="{&quot;elementType&quot;:&quot;letter&quot;,&quot;baseline&quot;:53.900000000000006,&quot;baselineProportion&quot;:0.9782214156079855,&quot;fontSize&quot;:100}" fill="#50c85a" id="svg_7"/>
       <path d="m84.67,241.91c2.7,0 4.05,1.5 4.05,4.5c0,1.36 -0.22,2.78 -0.66,4.24c-0.44,1.47 -1.19,2.56 -2.24,3.29l1.58,6l-5.18,0l-1.06,-5.25l-0.66,0l-0.75,5.25l-4.66,0l2.55,-18.04l7.04,0m-9.1,8.08l-11.75,-1.54l11.97,0l-0.22,1.54m-0.47,3.27l-11.76,-1.54l11.98,0l-0.22,1.54m-0.95,6.58l-11.75,-1.54l11.97,0l-0.22,1.54m1.89,-13.12l-11.76,-1.54l11.98,0l-0.22,1.54m-1.41,9.82l-11.76,-1.54l11.98,0l-0.22,1.54zm1.89,-13.09l-11.76,-1.54l11.95,0l-0.19,1.54m7.12,4.36c0,-0.02 0.01,-0.14 0.03,-0.34c0,-0.39 -0.49,-0.58 -1.47,-0.58l-0.61,0l-0.45,3.14l0.89,0c0.85,0 1.33,-0.34 1.44,-1.02l0.17,-1.19" data-paper-data="{&quot;elementType&quot;:&quot;letter&quot;,&quot;baseline&quot;:52.900000000000006,&quot;baselineProportion&quot;:1,&quot;fontSize&quot;:100}" fill="#50c85a" id="svg_8"/>
       <path d="m108.65,259.95l-2.86,-6.75l-0.11,0l-0.97,6.75l-4.66,0l2.55,-18.04l3.77,0l2.88,6.72l0.17,0l0.94,-6.72l4.63,0l-2.58,18.04l-3.77,0m-8.57,-6.69l-11.76,-1.54l11.98,0l-0.22,1.54m0.47,-3.27l-11.75,-1.54l11.97,0l-0.22,1.54m0.47,-3.27l-11.76,-1.54l11.98,0l-0.22,1.54m-1.89,13.12l-11.75,-1.54l11.97,0l-0.22,1.54m0.47,-3.3l-11.76,-1.54l11.98,0l-0.22,1.54zm1.89,-13.09l-11.76,-1.54l11.95,0l-0.19,1.54" data-paper-data="{&quot;elementType&quot;:&quot;letter&quot;,&quot;baseline&quot;:52.900000000000006,&quot;baselineProportion&quot;:1,&quot;fontSize&quot;:100}" fill="#50c85a" id="svg_9"/>
      </g>
      <g data-paper-data="{&quot;baselineProportion&quot;:0.9811616954474097,&quot;fontSize&quot;:100,&quot;baseline&quot;:62.5,&quot;elementType&quot;:&quot;word&quot;}" id="svg_10">
       <path d="m146.84,244.09l-3.83,0l-2.25,15.86l-5.26,0l2.24,-15.86l-3.8,0l0.81,-5.45l12.89,0l-0.8,5.45m-10.31,2.63l-11.76,-1.54l11.98,0l-0.22,1.54m-0.95,6.54l-11.75,-1.54l11.97,0l-0.22,1.54m0.47,-3.27l-11.76,-1.54l11.98,0l-0.22,1.54m-0.94,6.55l-11.76,-1.54l11.98,0l-0.22,1.54m-0.47,3.3l-11.76,-1.54l11.98,0l-0.22,1.54m-1.44,-16.4l-11.76,-1.54l11.95,0l-0.19,1.54m0.44,-3.27l-11.73,-1.54l11.95,0l-0.22,1.54z" data-paper-data="{&quot;elementType&quot;:&quot;letter&quot;,&quot;baseline&quot;:62.5,&quot;baselineProportion&quot;:1,&quot;fontSize&quot;:100}" fill="#50c85a" id="svg_11"/>
       <path d="m164.3,241.57c2,0 3.42,0.47 4.27,1.41c0.85,0.95 1.28,2.41 1.28,4.42c0,0.98 -0.1,2.16 -0.31,3.55c-0.46,3.27 -1.27,5.66 -2.44,7.15c-1.16,1.5 -3,2.25 -5.49,2.25c-1.96,0 -3.36,-0.47 -4.19,-1.41c-0.83,-0.95 -1.25,-2.4 -1.25,-4.39c0,-1.02 0.1,-2.22 0.31,-3.61c0.46,-3.27 1.26,-5.66 2.41,-7.15c1.14,-1.49 2.95,-2.23 5.41,-2.23m-1.89,13.61c0.54,0 0.94,-0.08 1.21,-0.24c0.27,-0.16 0.45,-0.51 0.54,-1.06l1.06,-7.12l-1.69,0c-0.52,0 -0.92,0.08 -1.21,0.24c-0.29,0.16 -0.46,0.5 -0.52,1.02l-1.03,7.16l1.64,0m-6.38,-6.72l-0.25,1.44l-10.84,-1.44l11.09,0m-0.52,3.27c-0.07,0.7 -0.12,1.19 -0.14,1.44l-10.92,-1.44l11.06,0m-0.17,3.27c0,0.36 0.04,0.84 0.11,1.43l-10.9,-1.43l10.79,0m1.66,-9.82c-0.22,0.59 -0.38,1.04 -0.47,1.36l-10.49,-1.36l10.95,0m-1.08,13.12c0.22,0.55 0.47,0.97 0.73,1.26l-9.68,-1.26l8.95,0m3.49,-16.4c-0.44,0.32 -0.82,0.7 -1.13,1.13l-8.51,-1.13l9.64,0z" data-paper-data="{&quot;elementType&quot;:&quot;letter&quot;,&quot;baseline&quot;:53.900000000000006,&quot;baselineProportion&quot;:0.9782214156079855,&quot;fontSize&quot;:100}" fill="#50c85a" id="svg_12"/>
      </g>
      <g data-paper-data="{&quot;baselineProportion&quot;:0.9811616954474097,&quot;fontSize&quot;:100,&quot;baseline&quot;:62.5,&quot;elementType&quot;:&quot;word&quot;}" id="svg_13">
       <path d="m200.24,238.64c3.16,0 4.74,1.74 4.74,5.22c0,1.43 -0.18,2.8 -0.53,4.09c-0.65,2.45 -1.67,4.09 -3.05,4.91l1.83,7.09l-5.8,0l-1.27,-6.35l-1.14,0l-0.89,6.35l-5.27,0l3.05,-21.31l8.32,0m-3.25,9.72c0.63,0 1.11,-0.08 1.43,-0.26c0.33,-0.17 0.55,-0.66 0.67,-1.47c0.12,-0.8 0.18,-1.3 0.18,-1.48c0,-0.45 -0.14,-0.74 -0.43,-0.87c-0.29,-0.12 -0.75,-0.19 -1.4,-0.19l-1.05,0l-0.61,4.27l1.22,0m-8.95,11.49l-11.75,-1.54l11.97,0l-0.22,1.54m0.94,-6.58l-11.75,-1.54l11.97,0l-0.22,1.54m-0.47,3.27l-11.76,-1.54l11.98,0l-0.22,1.54m1.38,-9.82l-11.73,-1.54l11.95,0l-0.22,1.54m0.94,-6.55l-11.73,-1.54l11.95,0l-0.22,1.54m-1.41,9.82l-11.73,-1.54l11.96,0l-0.23,1.54zm0.95,-6.54l-11.73,-1.54l11.95,0l-0.22,1.54" data-paper-data="{&quot;elementType&quot;:&quot;letter&quot;,&quot;baseline&quot;:62.5,&quot;baselineProportion&quot;:1,&quot;fontSize&quot;:100}" fill="#50c85a" id="svg_14"/>
       <path d="m222.59,255.18c0.5,0 0.85,-0.08 1.05,-0.23c0.19,-0.14 0.33,-0.51 0.4,-1.07l1.75,-11.96l4.66,0l-1.44,10.16c-0.44,3.18 -1.16,5.36 -2.15,6.53c-0.98,1.17 -2.68,1.75 -5.06,1.75c-1.91,0 -3.23,-0.35 -3.99,-1.04c-0.76,-0.69 -1.14,-1.9 -1.14,-3.63c0,-0.95 0.1,-2.16 0.3,-3.61l1.47,-10.16l4.66,0l-1.89,13.26l1.38,0zm-6.65,-1.91l-11.75,-1.54l11.98,0l-0.23,1.54m0.47,-3.27l-11.75,-1.54l11.97,0l-0.22,1.54m0.47,-3.27l-11.76,-1.54l11.98,0l-0.22,1.54m0.47,-3.27l-11.75,-1.54l11.95,0l-0.2,1.54m-1.53,11.56l0,0.68c0,0.39 0.01,0.67 0.03,0.85l-11.76,-1.54l11.73,0m1.08,4.84l-11.75,-1.54l10.95,0c0.21,0.64 0.47,1.15 0.81,1.54" data-paper-data="{&quot;elementType&quot;:&quot;letter&quot;,&quot;baseline&quot;:52.900000000000006,&quot;baselineProportion&quot;:0.9778188539741219,&quot;fontSize&quot;:100}" fill="#50c85a" id="svg_15"/>
       <path d="m249.65,259.95l-2.86,-6.75l-0.11,0l-0.97,6.75l-4.66,0l2.55,-18.04l3.77,0l2.88,6.72l0.17,0l0.94,-6.72l4.63,0l-2.58,18.04l-3.77,0m-8.1,-9.96l-11.75,-1.54l11.97,0l-0.22,1.54m-0.94,6.55l-11.76,-1.54l11.98,0l-0.22,1.54zm0.47,-3.27l-11.76,-1.54l11.98,0l-0.22,1.54m0.94,-6.54l-11.76,-1.54l11.98,0l-0.22,1.54m-1.89,13.12l-11.75,-1.54l11.97,0l-0.22,1.54m2.36,-16.4l-11.75,-1.54l11.95,0l-0.2,1.54" data-paper-data="{&quot;elementType&quot;:&quot;letter&quot;,&quot;baseline&quot;:52.900000000000006,&quot;baselineProportion&quot;:1,&quot;fontSize&quot;:100}" fill="#50c85a" id="svg_16"/>
      </g>
     </g>
    </g>
   </g>
  </g>
 </g>
</svg>