<svg width="24" height="24" viewBox="0 0 24 24" fill="none" xmlns="http://www.w3.org/2000/svg">
<path d="M21.7501 20.6896L16.086 15.0255C17.447 13.3915 18.1257 11.2958 17.9809 9.17412C17.836 7.05248 16.8788 5.06836 15.3084 3.63451C13.7379 2.20065 11.6751 1.42746 9.54906 1.47577C7.42304 1.52408 5.39748 2.39018 3.89377 3.89389C2.39006 5.39761 1.52396 7.42316 1.47565 9.54918C1.42733 11.6752 2.20053 13.738 3.63438 15.3085C5.06824 16.8789 7.05236 17.8362 9.17399 17.981C11.2956 18.1258 13.3914 17.4471 15.0254 16.0861L20.6895 21.7502L21.7501 20.6896ZM3.00006 9.75018C3.00006 8.41515 3.39594 7.11011 4.13764 6.00008C4.87934 4.89005 5.93354 4.02488 7.16694 3.51399C8.40034 3.0031 9.75754 2.86943 11.0669 3.12988C12.3763 3.39033 13.579 4.0332 14.523 4.97721C15.467 5.92121 16.1099 7.12395 16.3704 8.43332C16.6308 9.74269 16.4971 11.0999 15.9862 12.3333C15.4754 13.5667 14.6102 14.6209 13.5002 15.3626C12.3901 16.1043 11.0851 16.5002 9.75006 16.5002C7.96045 16.4982 6.24472 15.7864 4.97928 14.521C3.71384 13.2555 3.00204 11.5398 3.00006 9.75018Z" fill="#111111"/>
</svg>
